<?xml version="1.0" standalone="yes"?>
<svg xmlns="http://www.w3.org/2000/svg" width="1280" height="1280">
<path style="fill:#ffffff; stroke:none;" d="M0 0L0 1280L1280 1280L1280 0L0 0z"/>
<path style="fill:#2e993d; stroke:none;" d="M744 284C740.661 206.42 638.408 176.433 583 219.425C569.4 229.978 559.45 243.402 552.309 259C549.872 264.322 548.32 279.967 543.567 282.933C540.234 285.012 530.094 283.979 526 283.999C510.515 284.074 494.467 284.97 479 283.911C470.73 283.344 458.687 280.384 452.703 288.189C445.373 297.749 450 322.383 450 334L450 458C450 501.367 451 544.608 451 588C451 599.648 446.162 625.801 454.279 634.891C460.11 641.422 472.102 639 480 639L549 639L665 639C688.325 639 712.915 641.196 736 637.561C770.615 632.11 800.326 611.447 820.229 583C840.052 554.667 840 521.031 840 488C840 444.629 839 401.313 839 358L839 305C839 299.025 840.76 289.865 835.772 285.434C830.326 280.596 817.805 283 811 283C788.657 283 766.266 283.997 744 284z"/>
<path style="fill:#ffffff; stroke:none;" d="M577 287C591.22 287.61 606.76 291.703 620 296.811C627.316 299.634 636.136 305.909 644 306.231C652.375 306.574 662.163 299.766 670 297.079C684.046 292.263 698.673 290.53 713 287C703.146 213.887 583.61 211.199 577 287z"/>
<path style="fill:#a1b7a1; stroke:none;" d="M475 283L475 284L502 284L475 283M512 283L512 284L534 284L512 283z"/>
<path style="fill:#acc43f; stroke:none;" d="M456 299L540 298.089L624 307C615.093 299.804 600.01 297.283 589 295.003C558.744 288.737 527.767 289 497 289C485.939 289 458.953 284.498 456 299z"/>
<path style="fill:#a1b7a1; stroke:none;" d="M680 300L680 301C731.271 301 780.784 294.522 832 301C830.34 284.912 806.721 289 795 289C755.442 289 718.692 292.014 680 300M462 290L463 291L462 290M460 291L461 292L460 291M690 291L691 292L690 291M605.667 292.333L606.333 292.667L605.667 292.333M686 292L687 293L686 292z"/>
<path style="fill:#acc43f; stroke:none;" d="M608 293L609 294L608 293z"/>
<path style="fill:#a1b7a1; stroke:none;" d="M609 293L610 294L609 293M682 293L683 294L682 293z"/>
<path style="fill:#acc43f; stroke:none;" d="M611 294L612 295L611 294z"/>
<path style="fill:#a1b7a1; stroke:none;" d="M612.667 294.333L613.333 294.667L612.667 294.333M678 294L679 295L678 294z"/>
<path style="fill:#acc43f; stroke:none;" d="M614 295L615 296L614 295z"/>
<path style="fill:#a1b7a1; stroke:none;" d="M615.667 295.333L616.333 295.667L615.667 295.333M675 295L676 296L675 295z"/>
<path style="fill:#acc43f; stroke:none;" d="M617 296L618 297L617 296z"/>
<path style="fill:#a1b7a1; stroke:none;" d="M618.667 296.333L619.333 296.667L618.667 296.333M671 296L672 297L671 296z"/>
<path style="fill:#acc43f; stroke:none;" d="M620 297L621 298L620 297z"/>
<path style="fill:#a1b7a1; stroke:none;" d="M621 297L622 298L621 297M668 297L669 298L668 297M623.667 298.333L624.333 298.667L623.667 298.333M456 301L463 300L456 301z"/>
<path style="fill:#acc43f; stroke:none;" d="M625 299L626 300L625 299z"/>
<path style="fill:#a1b7a1; stroke:none;" d="M626 299L627 300L626 299M628.667 300.333L629.333 300.667L628.667 300.333M630.667 301.333L631.333 301.667L630.667 301.333z"/>
<path style="fill:#acc43f; stroke:none;" d="M632 302L633 303L632 302z"/>
<path style="fill:#a1b7a1; stroke:none;" d="M633 302L634 303L633 302z"/>
<path style="fill:#acc43f; stroke:none;" d="M634 303L635 304L634 303z"/>
<path style="fill:#a1b7a1; stroke:none;" d="M635 303L636 304L635 303z"/>
<path style="fill:#acc43f; stroke:none;" d="M636 304L637 305L636 304z"/>
<path style="fill:#a1b7a1; stroke:none;" d="M637 304L638 305L637 304z"/>
<path style="fill:#acc43f; stroke:none;" d="M638 305L639 306L638 305z"/>
<path style="fill:#a1b7a1; stroke:none;" d="M639 305L640 306L639 305M649 305L650 306L649 305M641 306L641 307L644 307L641 306M645 306L645 307L648 307L645 306M545 354L545 355L548 355L545 354z"/>
<path style="fill:#ffffff; stroke:none;" d="M548 354.425C535.862 356.078 524.35 359.775 514 366.439C470.468 394.467 469.055 459.22 508 491.674C524.263 505.227 546.204 510.268 567 507.714C577.326 506.446 587.136 503.031 596 497.572C652.713 462.647 640.969 370.617 574 356.015C565.51 354.163 556.655 353.247 548 354.425z"/>
<path style="fill:#a1b7a1; stroke:none;" d="M565.667 354.333L566.333 354.667L565.667 354.333M722 354L722 355L725 355L722 354z"/>
<path style="fill:#ffffff; stroke:none;" d="M725 354.425C712.859 356.078 701.301 359.522 691 366.356C682.364 372.085 674.786 379.319 669.079 388C633.243 442.504 679.558 516.085 744 507.711C754.573 506.337 764.957 502.556 774 496.934C830.466 461.832 816.454 372.414 752 356.375C743.22 354.19 734.011 353.198 725 354.425z"/>
<path style="fill:#a1b7a1; stroke:none;" d="M742.667 354.333L743.333 354.667L742.667 354.333M839 354L839 393L840 393C840 381.828 843.311 364.274 839 354M540 355L541 356L540 355M571.667 355.333L572.333 355.667L571.667 355.333M717 355L718 356L717 355M748.667 355.333L749.333 355.667L748.667 355.333M536 356L537 357L536 356M576 356L577 357L576 356M713 356L714 357L713 356M752.667 356.333L753.333 356.667L752.667 356.333M532.667 357.333L533.333 357.667L532.667 357.333M579 357L580 358L579 357M709 357L710 358L709 357M756 357L757 358L756 357M529.667 358.333L530.333 358.667L529.667 358.333M582 358L583 359L582 358M706 358L707 359L706 358M759 358L760 359L759 358M527 359L528 360L527 359M585 359L586 360L585 359M704 359L705 360L704 359M762 359L763 360L762 359M587 360L588 361L587 360M701 360L702 361L701 360M764 360L765 361L764 360M522 361L523 362L522 361M589 361L590 362L589 361M699 361L700 362L699 361M766 361L767 362L766 361M520 362L521 363L520 362M591 362L592 363L591 362M697 362L698 363L697 362M768 362L769 363L768 362M593 363L594 364L593 363M770 363L771 364L770 363M517 364L518 365L517 364M595 364L596 365L595 364M772 364L773 365L772 364M515 365L516 366L515 365M692 365L693 366L692 365M773 365L774 366L773 365M598 366L599 367L598 366M775 366L776 367L775 366M512 367L513 368L512 367M689 367L690 368L689 367M601 368L602 369L601 368M778 368L779 369L778 368M686 369L687 370L686 369M779 369L780 370L779 369M508 370L509 371L508 370M685 370L686 371L685 370M450 371L450 442L451 442L451 393L450 371M507 371L508 372L507 371M605 371L606 372L605 371M606 372L607 373L606 372M783 372L784 373L783 372M607 373L608 374L607 373M784 373L785 374L784 373M680 374L681 375L680 374M785 374L786 375L785 374M679 375L680 376L679 375M786 375L787 376L786 375M678 376L679 377L678 376M787 376L788 377L787 376M677 377L678 378L677 377M788 377L789 378L788 377M676 378L677 379L676 378M789 378L790 379L789 378M613 379L614 380L613 379M790 379L791 380L790 379M614 380L615 381L614 380M791 380L792 381L791 380M562 381L563 382L562 381z"/>
<path style="fill:#2e993d; stroke:none;" d="M563 381C565.44 387.717 569.091 393.526 567.481 401C561.928 426.789 533.685 424.595 521 407C515.051 413.131 513.974 423.802 514.001 432C514.102 463.521 543.085 487.001 574 481.536C609.638 475.237 627.344 431.507 606.211 402C596.066 387.834 580.022 381.011 563 381z"/>
<path style="fill:#a1b7a1; stroke:none;" d="M572 381L572 382L575 382L572 381M615 381L616 382L615 381z"/>
<path style="fill:#2e993d; stroke:none;" d="M722 381C725.364 386.457 729.008 391.337 729.39 398C730.163 411.453 716.615 425.052 703 423.66C694.294 422.769 689.005 416.551 683 411C679.047 419.931 677.918 430.337 679.439 440C680.609 447.436 683.424 454.838 687.785 460.999C723.615 511.628 804.629 461.139 774.124 407C769.953 399.598 764.15 393.306 757 388.7C746.191 381.737 734.451 381 722 381z"/>
<path style="fill:#a1b7a1; stroke:none;" d="M737 381L737 382L740 382L737 381M496 382L497 383L496 382M577.667 382.333L578.333 382.667L577.667 382.333M722 382L723 383L722 382M742.667 382.333L743.333 382.667L742.667 382.333M495 383L496 384L495 383M581 383L582 384L581 383M672 383L673 384L672 383M723 383L724 384L723 383M746 383L747 384L746 383M564 384L565 385L564 384M583.667 384.333L584.333 384.667L583.667 384.333M724 384L725 385L724 384M748.667 384.333L749.333 384.667L748.667 384.333M794 384L795 385L794 384M586 385L587 386L586 385M618 385L619 386L618 385M751 385L752 386L751 385M795 385L796 386L795 385M493 386L494 387L493 386M565 386L566 387L565 386M588 386L589 387L588 386M753 386L754 387L753 386M590 387L591 388L590 387M669 387L670 388L669 387M726 387L727 388L726 387M566.333 388.667L566.667 389.333L566.333 388.667M591 388L592 389L591 388M620 388L621 389L620 388M756 388L757 389L756 388M797 388L798 389L797 388M491 389L492 390L491 389M593 389L594 390L593 389M727.333 389.667L727.667 390.333L727.333 389.667M758 389L759 390L758 389M594 390L595 391L594 390M667 390L668 391L667 390M759 390L760 391L759 390M622 391L623 392L622 391M489 392L490 393L489 392M567 392L567 395L568 395L567 392M597 392L598 393L597 392M666 392L667 393L666 392M728.333 392.667L728.667 393.333L728.333 392.667M762 392L763 393L762 392M598 393L599 394L598 393M623 393L624 394L623 393M763 393L764 394L763 393M800 393L801 394L800 393M488 394L489 395L488 394M599 394L600 395L599 394M764 394L765 395L764 394M600 395L601 396L600 395M765 395L766 396L765 395M801 395L802 396L801 395M487 396L488 397L487 396M601 396L602 397L601 396M766 396L767 397L766 396M602 397L603 398L602 397M729 397L729 401L730 401L729 397M767 397L768 398L767 397M802 397L803 398L802 397M486 398L487 399L486 398M603 398L604 399L603 398M768 398L769 399L768 398M567 399L567 402L568 402L567 399M626 399L627 400L626 399M803 399L804 400L803 399M485 400L486 401L485 400M662 400L663 401L662 400M627 401L628 402L627 401M770 401L771 402L770 401M804 401L805 402L804 401M606 402L607 403L606 402M661 402L662 403L661 402M771 402L772 403L771 402M484 403L485 404L484 403M566 404L567 405L566 404M628 404L629 405L628 404M728.333 404.667L728.667 405.333L728.333 404.667M772 404L773 405L772 404M805 404L806 405L805 404M483.333 405.667L483.667 406.333L483.333 405.667M608 405L609 406L608 405M660 405L661 406L660 405M773 405L774 406L773 405M520 406L521 407L520 406M565.333 406.667L565.667 407.333L565.333 406.667M629.333 406.667L629.667 407.333L629.333 406.667M519 407L520 408L519 407M521 407L522 408L521 407M609 407L610 408L609 407M727.333 407.667L727.667 408.333L727.333 407.667M774 407L775 408L774 407M806 407L807 408L806 407M482.333 408.667L482.667 409.333L482.333 408.667M659 408L660 409L659 408M518 409L519 410L518 409M522 409L523 410L522 409M610 409L611 410L610 409M775 409L776 410L775 409M523 410L524 411L523 410M563 410L564 411L563 410M630 410L631 411L630 410M726 410L727 411L726 410M807 410L808 411L807 410M611 411L612 412L611 411M658.333 411.667L658.667 412.333L658.333 411.667M682 411L683 412L682 411M776 411L777 412L776 411M481 412L482 413L481 412M517 412L518 413L517 412M684 412L685 413L684 412M525 413L526 414L525 413M612.333 413.667L612.667 414.333L612.333 413.667M631.333 413.667L631.667 414.333L631.333 413.667M685 413L686 414L685 413M724 413L725 414L724 413M516 414L517 415L516 414M526 414L527 415L526 414M681 414L682 415L681 414M723 414L724 415L723 414M777 414L778 415L777 414M808.333 414.667L808.667 415.333L808.333 414.667M557 416L558 417L557 416M613.333 416.667L613.667 417.333L613.333 416.667M657.333 416.667L657.667 417.333L657.333 416.667M480 417L481 418L480 417M515.333 417.667L515.667 418.333L515.333 417.667M530 417L531 418L530 417M556 417L557 418L556 417M680 417L681 418L680 417M720 417L721 418L720 417M778 417L779 418L778 417M532 418L533 419L532 418M554 418L555 419L554 418M690 418L691 419L690 418M719 418L720 419L719 418M534 419L535 420L534 419M551.667 419.333L552.333 419.667L551.667 419.333M632.333 419.667L632.667 420.333L632.333 419.667M691 419L692 420L691 419M718 419L719 420L718 419M537.667 420.333L538.333 420.667L537.667 420.333M548.667 420.333L549.333 420.667L548.667 420.333M614 420L614 423L615 423L614 420M693 420L694 421L693 420M716 420L717 421L716 420M809.333 420.667L809.667 421.333L809.333 420.667M514 421L514 424L515 424L514 421M543 421L544 422L543 421M679.333 421.667L679.667 422.333L679.333 421.667M695 421L696 422L695 421M714 421L715 422L714 421M779.333 421.667L779.667 422.333L779.333 421.667M656 422L656 426L657 426L656 422M697.667 422.333L698.333 422.667L697.667 422.333M711 422L712 423L711 422M701 423L701 424L708 424L701 423M479 424L479 440L480 440L479 424M615 426L615 437L616 437L615 426M633 427L633 435L634 435L633 427M678 428L678 435L679 435L678 428M780 428L780 435L781 435L780 428M656 436L656 441L657 441L656 436M514 439L514 442L515 442L514 439M809 439L809 443L810 443L809 439M679 440L679 443L680 443L679 440M779 440L779 443L780 443L779 440M614 441L614 444L615 444L614 441M632 441L632 444L633 444L632 441M480 443L480 446L481 446L480 443M515.333 444.667L515.667 445.333L515.333 444.667M657 444L657 447L658 447L657 444M613.333 445.667L613.667 446.333L613.333 445.667M680.333 445.667L680.667 446.333L680.333 445.667M778.333 445.667L778.667 446.333L778.333 445.667M808.333 446.667L808.667 447.333L808.333 446.667M631.333 447.667L631.667 448.333L631.333 447.667M516 448L517 449L516 448M681.333 448.667L681.667 449.333L681.333 448.667M777.333 448.667L777.667 449.333L777.333 448.667M481.333 449.667L481.667 450.333L481.333 449.667M612 449L613 450L612 449M658.333 449.667L658.667 450.333L658.333 449.667M517.333 450.667L517.667 451.333L517.333 450.667M807.333 450.667L807.667 451.333L807.333 450.667M611 451L612 452L611 451M630.333 451.667L630.667 452.333L630.333 451.667M682 451L683 452L682 451M776 451L777 452L776 451M482.333 452.667L482.667 453.333L482.333 452.667M518 453L519 454L518 453M610.333 453.667L610.667 454.333L610.333 453.667M659.333 453.667L659.667 454.333L659.333 453.667M683 453L684 454L683 453M775 453L776 454L775 453M629.333 454.667L629.667 455.333L629.333 454.667M806.333 454.667L806.667 455.333L806.333 454.667M519 455L520 456L519 455M609 455L610 456L609 455M684 455L685 456L684 455M774 455L775 456L774 455M483 456L484 457L483 456M660.333 456.667L660.667 457.333L660.333 456.667M520 457L521 458L520 457M608 457L609 458L608 457M628.333 457.667L628.667 458.333L628.333 457.667M685 457L686 458L685 457M773 457L774 458L773 457M805 457L806 458L805 457M484.333 458.667L484.667 459.333L484.333 458.667M521 458L522 459L521 458M607 459L608 460L607 459M661 459L662 460L661 459M686 459L687 460L686 459M772 459L773 460L772 459M522 460L523 461L522 460M606 460L607 461L606 460M627 460L628 461L627 460M687 460L688 461L687 460M771 460L772 461L771 460M804 460L805 461L804 460M485 461L486 462L485 461M523 461L524 462L523 461M662.333 461.667L662.667 462.333L662.333 461.667M605 462L606 463L605 462M626.333 462.667L626.667 463.333L626.333 462.667M803 462L804 463L803 462M486.333 463.667L486.667 464.333L486.333 463.667M604 463L605 464L604 463M689 463L690 464L689 463M769 463L770 464L769 463M525 464L526 465L525 464M603 464L604 465L603 464M625.333 464.667L625.667 465.333L625.333 464.667M663 464L664 465L663 464M690 464L691 465L690 464M768 464L769 465L768 464M802.333 464.667L802.667 465.333L802.333 464.667M487.333 465.667L487.667 466.333L487.333 465.667M526 465L527 466L526 465M691 465L692 466L691 465M767 465L768 466L767 465M527 466L528 467L527 466M624.333 466.667L624.667 467.333L624.333 466.667M664 466L665 467L664 466M692 466L693 467L692 466M766 466L767 467L766 466M801.333 466.667L801.667 467.333L801.333 466.667M488.333 467.667L488.667 468.333L488.333 467.667M528 467L529 468L528 467M665.333 467.667L665.667 468.333L665.333 467.667M529 468L530 469L529 468M623.333 468.667L623.667 469.333L623.333 468.667M694 468L695 469L694 468M764 468L765 469L764 468M800 468L801 469L800 468M489 469L490 470L489 469M530 469L531 470L530 469M666.333 469.667L666.667 470.333L666.333 469.667M695 469L696 470L695 469M763 469L764 470L763 469M531 470L532 471L531 470M597 470L598 471L597 470M622 470L623 471L622 470z"/>
<path style="fill:#acc43f; stroke:none;" d="M615 480L615 481L618 480L644.062 513.286L645 530L646 530L649.728 519.693L659 518.996L684 516C684 511.613 691.303 511.809 692 507C694.814 487.582 669.488 475.194 655 471C654.366 480.45 654.621 502.838 646 508L644 470C633.548 470.832 623.987 474.754 615 480z"/>
<path style="fill:#ffffff; stroke:none;" d="M644 470L646 508C654.566 504.639 654.778 479.467 655 471L644 470z"/>
<path style="fill:#acc43f; stroke:none;" d="M648 470L648 471L652 471L648 470z"/>
<path style="fill:#a1b7a1; stroke:none;" d="M696 470L697 471L696 470M762 470L763 471L762 470M799 470L800 471L799 470M490 471L491 472L490 471M532 471L533 472L532 471M596 471L597 472L596 471M667 471L668 472L667 471M697 471L698 472L697 471M761 471L762 472L761 471M491.333 472.667L491.667 473.333L491.333 472.667M595 472L596 473L595 472M621 472L622 473L621 472M798 472L799 473L798 472M535 473L536 474L535 473M593 473L594 474L593 473M620.333 473.667L620.667 474.333L620.333 473.667M668 473L669 474L668 473M700 473L701 474L700 473M758 473L759 474L758 473M797 473L798 474L797 473M492 474L493 475L492 474M592 474L593 475L592 474M669 474L670 475L669 474M701 474L702 475L701 474M757 474L758 475L757 474M493.333 475.667L493.667 476.333L493.333 475.667M538 475L539 476L538 475M590 475L591 476L590 475M619 475L620 476L619 475M703 475L704 476L703 475M755 475L756 476L755 475M796 475L797 476L796 475M540 476L541 477L540 476M588 476L589 477L588 476M618 476L619 477L618 476M670 476L671 477L670 476M705 476L706 477L705 476M753 476L754 477L753 476M795 476L796 477L795 476M494 477L495 478L494 477M542 477L543 478L542 477M586.667 477.333L587.333 477.667L586.667 477.333M707 477L708 478L707 477M751 477L752 478L751 477M794.333 477.667L794.667 478.333L794.333 477.667M495 478L496 479L495 478M544 478L545 479L544 478M584 478L585 479L584 478M617 478L618 479L617 478M709 478L710 479L709 478M749 478L750 479L749 478M546.667 479.333L547.333 479.667L546.667 479.333M582 479L583 480L582 479M711.667 479.333L712.333 479.667L711.667 479.333M746.667 479.333L747.333 479.667L746.667 479.333M793 479L794 480L793 479M496 480L497 481L496 480M549.667 480.333L550.333 480.667L549.667 480.333M578.667 480.333L579.333 480.667L578.667 480.333z"/>
<path style="fill:#ea8903; stroke:none;" d="M598 509C611.113 516.08 618.141 534.304 630 544.076C636.038 549.052 642.939 554.095 651 550.633C654.716 549.036 657.972 546.341 661 543.711C665.08 540.166 668.645 536.162 672.076 532C676.291 526.887 680.967 521.369 683 515L661 518.999L649.728 519.067L646 530L645 530L644.436 513.286L632.573 500.101L618 480C606.328 483.968 599.553 497.475 598 509z"/>
<path style="fill:#a1b7a1; stroke:none;" d="M714.667 480.333L715.333 480.667L714.667 480.333M743.667 480.333L744.333 480.667L743.667 480.333M792 480L793 481L792 480M497 481L498 482L497 481M553 481L553 482L556 482L553 481M574 481L574 482L577 482L574 481M718.667 481.333L719.333 481.667L718.667 481.333M738 481L738 482L741 482L738 481M791 481L792 482L791 481M498 482L499 483L498 482M558 482L558 483L571 483L558 482z"/>
<path style="fill:#acc43f; stroke:none;" d="M612 482L613 483L612 482z"/>
<path style="fill:#a1b7a1; stroke:none;" d="M723 482L723 483L736 483L723 482M790 482L791 483L790 482M499 483L500 484L499 483z"/>
<path style="fill:#acc43f; stroke:none;" d="M611 483L612 484L611 483z"/>
<path style="fill:#a1b7a1; stroke:none;" d="M500 484L501 485L500 484z"/>
<path style="fill:#acc43f; stroke:none;" d="M610 484L611 485L610 484z"/>
<path style="fill:#a1b7a1; stroke:none;" d="M501 485L502 486L501 485z"/>
<path style="fill:#acc43f; stroke:none;" d="M609 485L610 486L609 485z"/>
<path style="fill:#a1b7a1; stroke:none;" d="M788 485L789 486L788 485M502 486L503 487L502 486z"/>
<path style="fill:#acc43f; stroke:none;" d="M608 486L609 487L608 486z"/>
<path style="fill:#a1b7a1; stroke:none;" d="M787 486L788 487L787 486M503 487L504 488L503 487z"/>
<path style="fill:#acc43f; stroke:none;" d="M607 487L608 488L607 487z"/>
<path style="fill:#a1b7a1; stroke:none;" d="M786 487L787 488L786 487M504 488L505 489L504 488M505 489L506 490L505 489M506 490L507 491L506 490M782 490L783 491L782 490M507 491L508 492L507 491z"/>
<path style="fill:#acc43f; stroke:none;" d="M604 491L605 492L604 491z"/>
<path style="fill:#a1b7a1; stroke:none;" d="M781 491L782 492L781 491M603 492L604 493L603 492M780 492L781 493L780 492M510 493L511 494L510 493M602 493L603 494L602 493M511 494L512 495L511 494M600 494L601 495L600 494M777 494L778 495L777 494M513 495L514 496L513 495M599 495L600 496L599 495M776 495L777 496L776 495M514 496L515 497L514 496M597 496L598 497L597 496M691 496L692 497L691 496M774 496L775 497L774 496M516 497L517 498L516 497M596 497L597 498L596 497M693 497L694 498L693 497M773 497L774 498L773 497M594 498L595 499L594 498M694 498L695 499L694 498M771 498L772 499L771 498M519 499L520 500L519 499M592 499L593 500L592 499M696 499L697 500L696 499M769 499L770 500L769 499M521 500L522 501L521 500M698 500L699 501L698 500M767 500L768 501L767 500M523 501L524 502L523 501M588 501L589 502L588 501M700 501L701 502L700 501M765 501L766 502L765 501M586 502L587 503L586 502M702 502L703 503L702 502M763 502L764 503L763 502M528 503L529 504L528 503M584 503L585 504L584 503M705 503L706 504L705 503M760.667 503.333L761.333 503.667L760.667 503.333M531 504L532 505L531 504M581 504L582 505L581 504M707.667 504.333L708.333 504.667L707.667 504.333M758 504L759 505L758 504M534 505L535 506L534 505M578 505L579 506L578 505M711 505L712 506L711 505M754.667 505.333L755.333 505.667L754.667 505.333M537.667 506.333L538.333 506.667L537.667 506.333M574 506L575 507L574 506M714.667 506.333L715.333 506.667L714.667 506.333M750.667 506.333L751.333 506.667L750.667 506.333M542.667 507.333L543.333 507.667L542.667 507.333M568 507L568 508L571 508L568 507M719.667 507.333L720.333 507.667L719.667 507.333M745 507L745 508L748 508L745 507M549 508L549 509L564 509L549 508M726 508L726 509L741 509L726 508z"/>
<path style="fill:#ea8903; stroke:none;" d="M683 514L684 515L683 514z"/>
<path style="fill:#acc43f; stroke:none;" d="M606 516L607 517L606 516M498 604L645 603L645 559C632.369 556.558 620.773 541.819 613.478 532C610.657 528.202 607.559 519.263 602.87 517.694C594.548 514.909 578.218 525.135 571 528.753C539.95 544.316 511.503 571.577 498 604M682 517L683 518L682 517M671 520L672 521L671 520M680 520L681 521L680 520M610 522L611 523L610 522M611 523L612 524L611 523M678 523L679 524L678 523M677 524L678 525L677 524M612 525L613 526L612 525M613 526L614 527L613 526M676 526L677 527L676 526M614 527L615 528L614 527M675 527L676 528L675 527M616 530L617 531L616 530M617 531L618 532L617 531M672 531L673 532L672 531M618 532L619 533L618 532M671 532L672 533L671 532M619 533L620 534L619 533M670 533L671 534L670 533M628 542L629 543L628 542M629 543L630 544L629 543M630 544L631 545L630 544M658 545L659 546L658 545M657 546L658 547L657 546M634 547L635 548L634 547M637 549L638 550L637 549M653 549L654 550L653 549M651 550L652 551L651 550M641 551L642 552L641 551M649 551L650 552L649 551M645 552L646 553L645 552z"/>
<path style="fill:#a1b7a1; stroke:none;" d="M816 587L817 588L816 587M814 590L815 591L814 590M813 591L814 592L813 591M809 596L810 597L809 596M808 597L809 598L808 597M807 598L808 599L807 598M799 606L800 607L799 606M798 607L799 608L798 607M797 608L798 609L797 608M796 609L797 610L796 609M792 612L793 613L792 612M791 613L792 614L791 613M788 615L789 616L788 615M787 616L788 617L787 616M784 618L785 619L784 618M781 620L782 621L781 620M779 621L780 622L779 621M776 623L777 624L776 623M774 624L775 625L774 624M772 625L773 626L772 625M770 626L771 627L770 626M768 627L769 628L768 627M766 628L767 629L766 628M764 629L765 630L764 629M451 630L452 631L451 630M761 630L762 631L761 630M759 631L760 632L759 631M756 632L757 633L756 632M753 633L754 634L753 633M453 634L454 635L453 634M749.667 634.333L750.333 634.667L749.667 634.333M454 635L455 636L454 635M746 635L747 636L746 635M455 636L456 637L455 636M741.667 636.333L742.333 636.667L741.667 636.333M736 637L737 638L736 637M458 638L459 639L458 638M727 638L727 639L730 639L727 638M461 639L461 640L558 640.039L642 645L719 640L695 639L643 639L461 639z"/>
<path style="fill:#2e993d; stroke:none;" d="M310 939L310 878C321.62 878 341.047 874.15 349.468 884.105C363.568 900.774 345.541 927.162 372 937.049C375.856 938.49 379.918 938.916 384 939C384 918.272 389.969 886.737 377.211 869.001C372.258 862.115 365.068 859.125 358 855L371.319 839L394 799C386.069 799 365.781 795.365 359.61 800.603C345.915 812.226 344.821 837.721 328 846.558C322.459 849.469 316.048 849 310 849L310 737C295.27 737.122 283.194 744.862 280.465 760C275.38 788.201 280 821.318 280 850C280 871.147 276.257 896.321 280.669 917C283.763 931.504 295.843 938.883 310 939M975 839C975 831.315 978.404 812.982 973.972 806.637C970.606 801.818 960.368 799.924 955 798.654C934.115 793.714 911.381 796.77 894 809.76C871.445 826.617 864.695 854.339 868.289 881C876.646 943.008 961.906 964.566 997.251 912C1010.92 891.675 1010 867.378 1010 844L1010 737C980.512 737.244 980 762.22 980 785C980 814.471 984.461 848.096 978.55 877C975.523 891.802 966.616 905.377 952 910.757C901.096 929.492 873.805 845.328 924 827.548C929.626 825.555 936.051 824.578 942 825.171C954.244 826.391 964.524 833.191 975 839M1054 754.468C1031.98 758.669 1039.71 792.816 1062 788.532C1083.85 784.332 1076.22 750.23 1054 754.468M110 939L110 910C98.9542 910 76.1768 914.303 67.044 907.486C60.1168 902.315 61 892.674 61 885L61 828L110 828L110 799L61 799L61 765C20.0249 765.113 32 823.55 32 851C32 878.502 23.7824 922.856 56 935.743C72.1278 942.194 92.9641 939 110 939M188 796.514C164.91 797.964 143.845 806.426 130.043 826C96.8416 873.088 131.023 945.3 191 941.907C217.371 940.414 242.429 927.386 254.63 903C278.363 855.563 243.193 793.047 188 796.514M469 796.514C442.647 798.169 419.059 809.793 406.32 834C381.361 881.429 416.158 945.066 472 941.907C498.562 940.404 523.466 927.527 535.73 903C559.53 855.399 524.283 793.041 469 796.514M588 999L588 906C588 889.45 585.627 870.953 590.746 855C599.229 828.566 630.924 814.994 654 833.38C679.105 853.382 676.099 898.979 644 910.453C623.764 917.686 609.698 906.626 592 899C592 906.865 588.761 923.921 593.028 930.61C596.675 936.327 608.825 938.745 615 939.996C638.498 944.757 662.253 939.503 679.961 922.829C711.242 893.375 705.985 836.466 673 810.518C652.679 794.532 621.371 792.351 598 802.428C545.765 824.952 558 895.475 558 941C558 965.793 553.612 998.905 588 999M845 908C839.184 904.686 827.794 891.936 821 892.907C813.226 894.017 804.808 907.057 797 910.676C774.139 921.27 747.19 901.42 742 879L857 879C857 858.744 855.23 839.265 841.674 823C812.177 787.605 756.63 787.419 727.465 823C717.424 835.249 712.646 850.439 711.17 866C707.227 907.568 746.225 942.587 786 942.996C807.891 943.221 839.349 932.048 845 908M1210 891C1198.14 897.817 1193.24 910.503 1178 912.7C1123.32 920.579 1115.65 828.947 1171 825.089C1178.01 824.601 1185.49 825.797 1192 828.454C1222.25 840.807 1215 876.724 1215 903C1215 923.053 1222.56 938.814 1245 939L1245 878C1245 856.843 1244.69 834.846 1229.82 818.001C1205.94 790.956 1154.47 788.95 1127 811.464C1111.83 823.896 1104.57 840.913 1102.29 860C1097.73 898.075 1123.66 937.415 1163 941.075C1176.42 942.324 1201 941.353 1208.97 927.7C1213.7 919.61 1210 900.328 1210 891M1043 799L1043 878C1043 890.674 1040.84 905.622 1043.68 918C1046.92 932.105 1059.39 938.887 1073 939L1073 799L1043 799z"/>
<path style="fill:#ffffff; stroke:none;" d="M182 825.464C128.731 834.88 142.359 922.37 197 912.536C249.976 903.001 236.413 815.846 182 825.464M463 825.464C409.892 835.023 423.591 922.328 478 912.536C531.168 902.966 517.422 815.67 463 825.464M746 852L823 852C819.316 831.331 791.659 820.309 773 826.523C760.357 830.734 752.073 840.592 746 852z"/>
</svg>
